<svg viewBox="0 0 24 24" width="24" height="24" xmlns="http://www.w3.org/2000/svg" fill="currentColor">
<path d="M20.5 7.1c.1-.3 0-.6-.5-.6h-2.2c-.4 0-.6.2-.7.5 0 0-.9 2.3-2.1 3.8-.4.4-.6.5-.8.5-.1 0-.3-.1-.3-.4V7c0-.4-.1-.5-.5-.5H9c-.3 0-.5.2-.5.4 0 .4.6.5.7 1.6v2.4c0 .5-.1.6-.3.6-.6 0-2-.2-3.8-3.7-.2-.4-.4-.5-.7-.5H1.9c-.5 0-.6.2-.6.5 0 .5.6 2.9 2.8 6 1.5 2.1 3.7 3.2 5.7 3.2 1.2 0 1.4-.3 1.4-.6v-1.4c0-.4.1-.5.4-.5.3 0 .9.1 2.3 1.2 1.6 1.2 1.8 1.8 2.7 1.8h2.2c.5 0 .8-.3.6-.8-.2-.5-.9-1.2-1.8-2.1-.5-.5-1.3-1.2-1.5-1.5-.3-.4-.2-.6 0-1 0 0 2.7-3.8 3-5.1z"/></svg>