<svg viewBox="0 0 24 24" width="24" height="24" xmlns="http://www.w3.org/2000/svg" fill="currentColor">
<path d="M20.52 3.48A11.86 11.86 0 0 0 12 0a11.99 11.99 0 0 0-10.38 18.17L0 24l5.99-1.57A11.98 11.98 0 0 0 12 24a11.99 11.99 0 0 0 8.48-20.52zm-8.5 18.37a9.94 9.94 0 0 1-5.06-1.38l-.36-.21-3.56.93.95-3.46-.23-.36A9.94 9.94 0 1 1 12.02 21.85z"/><path d="M17.47 14.4c-.29-.15-1.7-.84-1.96-.93-.26-.1-.45-.15-.65.15-.19.3-.75.93-.92 1.12-.17.19-.34.21-.63.08-.29-.14-1.25-.46-2.38-1.48-.88-.78-1.47-1.73-1.64-2.02-.17-.29-.02-.45.13-.59.13-.13.29-.34.43-.51.14-.17.19-.29.29-.48.1-.19.05-.36-.02-.51-.07-.15-.65-1.56-.9-2.13-.24-.58-.48-.5-.65-.51h-.56c-.19 0-.5.07-.76.36-.26.3-1 1-1 2.44s1.03 2.84 1.18 3.03c.15.2 2.02 3.09 4.89 4.33.68.29 1.21.46 1.62.59.68.22 1.3.19 1.79.11.55-.08 1.7-.7 1.94-1.37.24-.67.24-1.24.17-1.36-.07-.12-.26-.19-.55-.34z"/></svg>